<svg version="1.2" xmlns="http://www.w3.org/2000/svg" viewBox="0 0 2941 2945" width="1000" height="1001">
	<title>Logo UNIT</title>
	<style>
		.s0 { fill: rgba(255,255,255,0.07) } 
	</style>
	<path id="path13" class="s0" d="m2264.6 2177.2l675.8-578.7c-28.5 333.8-170.2 659.6-425.6 915.1-575.1 575.2-1507.5 575.2-2082.9 0-575-575-575-1507.5 0-2082.7 268.8-268.9 615.6-411.9 967.6-429.6l-787.7 832.5c-32 32.2-37.8 78.5-13 103.7 25.2 24.8 71.4 19.1 103.6-13.1l1049-898.6c80.5 15.5 159.7 37.9 237.1 66.7l-1509.2 1572.1c-32 32.2-37.9 78.6-13.1 103.5v0.1c25.3 25.2 71.6 19.2 103.7-13l1704-1519.1c53.9 34.7 105.5 73.6 155.2 116.3-2.5 1.9-5.2 3.3-7.7 5.6l-1722 1793.8c-32.3 32.1-37.9 78.3-12.9 103.4v0.2c25 24.9 71.4 19.2 103.6-12.9l1858.8-1657.5c38.5 51.3 73.4 104.4 104.6 159.1l-1564.9 1629.8c-32.1 32.2-37.9 78.7-12.9 103.6 25.1 24.9 71.5 19.5 103.7-12.8l1601.1-1427.4c25 80.6 42.6 163.2 53.4 246.6l-759.5 803.1c-32.2 32-38 78.3-13 103.4 25 25.1 71.4 19.1 103.2-13.2z"/>
</svg>